<mxfile host="app.diagrams.net" agent="Mozilla/5.0 (Windows NT 10.0; Win64; x64) AppleWebKit/537.36 (KHTML, like Gecko) Chrome/129.0.0.0 Safari/537.36" version="24.7.17">
  <diagram id="C5RBs43oDa-KdzZeNtuy" name="Page-1">
    <mxGraphModel dx="1222" dy="758" grid="1" gridSize="10" guides="1" tooltips="1" connect="1" arrows="1" fold="1" page="1" pageScale="1" pageWidth="1250" pageHeight="1300" math="0" shadow="0">
      <root>
        <mxCell id="WIyWlLk6GJQsqaUBKTNV-0" />
        <mxCell id="WIyWlLk6GJQsqaUBKTNV-1" parent="WIyWlLk6GJQsqaUBKTNV-0" />
        <mxCell id="IxoI0bGfIbi6MGj2JMH9-40" style="edgeStyle=orthogonalEdgeStyle;rounded=0;orthogonalLoop=1;jettySize=auto;html=1;exitX=0.5;exitY=1;exitDx=0;exitDy=0;entryX=0.5;entryY=0;entryDx=0;entryDy=0;" parent="WIyWlLk6GJQsqaUBKTNV-1" source="WIyWlLk6GJQsqaUBKTNV-3" target="IxoI0bGfIbi6MGj2JMH9-38" edge="1">
          <mxGeometry relative="1" as="geometry" />
        </mxCell>
        <mxCell id="WIyWlLk6GJQsqaUBKTNV-3" value="start" style="rounded=1;whiteSpace=wrap;html=1;fontSize=12;glass=0;strokeWidth=1;shadow=0;" parent="WIyWlLk6GJQsqaUBKTNV-1" vertex="1">
          <mxGeometry x="226" y="30" width="120" height="40" as="geometry" />
        </mxCell>
        <mxCell id="WIyWlLk6GJQsqaUBKTNV-11" value="end" style="rounded=1;whiteSpace=wrap;html=1;fontSize=12;glass=0;strokeWidth=1;shadow=0;" parent="WIyWlLk6GJQsqaUBKTNV-1" vertex="1">
          <mxGeometry x="226" y="1230" width="120" height="40" as="geometry" />
        </mxCell>
        <mxCell id="IxoI0bGfIbi6MGj2JMH9-43" style="edgeStyle=orthogonalEdgeStyle;rounded=0;orthogonalLoop=1;jettySize=auto;html=1;exitX=1;exitY=0.5;exitDx=0;exitDy=0;entryX=0;entryY=0.5;entryDx=0;entryDy=0;" parent="WIyWlLk6GJQsqaUBKTNV-1" source="IxoI0bGfIbi6MGj2JMH9-37" target="GXRtlIEf8j7_5KHKnMaV-0" edge="1">
          <mxGeometry relative="1" as="geometry">
            <mxPoint x="400" y="230" as="targetPoint" />
          </mxGeometry>
        </mxCell>
        <mxCell id="IxoI0bGfIbi6MGj2JMH9-109" value="&lt;b&gt;True&lt;/b&gt;" style="edgeLabel;html=1;align=center;verticalAlign=middle;resizable=0;points=[];" parent="IxoI0bGfIbi6MGj2JMH9-43" vertex="1" connectable="0">
          <mxGeometry x="-0.2194" y="2" relative="1" as="geometry">
            <mxPoint x="1" y="2" as="offset" />
          </mxGeometry>
        </mxCell>
        <mxCell id="IxoI0bGfIbi6MGj2JMH9-130" style="edgeStyle=orthogonalEdgeStyle;rounded=0;orthogonalLoop=1;jettySize=auto;html=1;exitX=0.5;exitY=1;exitDx=0;exitDy=0;" parent="WIyWlLk6GJQsqaUBKTNV-1" source="IxoI0bGfIbi6MGj2JMH9-37" target="IxoI0bGfIbi6MGj2JMH9-47" edge="1">
          <mxGeometry relative="1" as="geometry" />
        </mxCell>
        <mxCell id="IxoI0bGfIbi6MGj2JMH9-131" value="&lt;b&gt;False&lt;/b&gt;" style="edgeLabel;html=1;align=center;verticalAlign=middle;resizable=0;points=[];" parent="IxoI0bGfIbi6MGj2JMH9-130" vertex="1" connectable="0">
          <mxGeometry x="-0.0879" relative="1" as="geometry">
            <mxPoint as="offset" />
          </mxGeometry>
        </mxCell>
        <mxCell id="IxoI0bGfIbi6MGj2JMH9-37" value="&lt;font style=&quot;font-size: 8px;&quot;&gt;[1] Login&lt;/font&gt;" style="rhombus;whiteSpace=wrap;html=1;" parent="WIyWlLk6GJQsqaUBKTNV-1" vertex="1">
          <mxGeometry x="246" y="180" width="80" height="80" as="geometry" />
        </mxCell>
        <mxCell id="IxoI0bGfIbi6MGj2JMH9-41" style="edgeStyle=orthogonalEdgeStyle;rounded=0;orthogonalLoop=1;jettySize=auto;html=1;exitX=0.5;exitY=1;exitDx=0;exitDy=0;entryX=0.5;entryY=0;entryDx=0;entryDy=0;" parent="WIyWlLk6GJQsqaUBKTNV-1" source="IxoI0bGfIbi6MGj2JMH9-38" target="IxoI0bGfIbi6MGj2JMH9-37" edge="1">
          <mxGeometry relative="1" as="geometry" />
        </mxCell>
        <mxCell id="IxoI0bGfIbi6MGj2JMH9-38" value="&lt;font style=&quot;font-size: 8px;&quot;&gt;[1] Login&lt;/font&gt;&lt;div&gt;&lt;font style=&quot;font-size: 8px;&quot;&gt;[2] Daftar Akun&lt;/font&gt;&lt;/div&gt;&lt;div&gt;&lt;font style=&quot;font-size: 8px;&quot;&gt;[3] Exit&lt;/font&gt;&lt;/div&gt;" style="shape=parallelogram;perimeter=parallelogramPerimeter;whiteSpace=wrap;html=1;fixedSize=1;" parent="WIyWlLk6GJQsqaUBKTNV-1" vertex="1">
          <mxGeometry x="216" y="100" width="140" height="50" as="geometry" />
        </mxCell>
        <mxCell id="IxoI0bGfIbi6MGj2JMH9-171" style="edgeStyle=orthogonalEdgeStyle;rounded=0;orthogonalLoop=1;jettySize=auto;html=1;exitX=0;exitY=0.5;exitDx=0;exitDy=0;" parent="WIyWlLk6GJQsqaUBKTNV-1" edge="1">
          <mxGeometry relative="1" as="geometry">
            <mxPoint x="451.1190476190475" y="219.66666666666663" as="targetPoint" />
            <mxPoint x="451" y="220" as="sourcePoint" />
          </mxGeometry>
        </mxCell>
        <mxCell id="IxoI0bGfIbi6MGj2JMH9-50" style="edgeStyle=orthogonalEdgeStyle;rounded=0;orthogonalLoop=1;jettySize=auto;html=1;exitX=0.5;exitY=1;exitDx=0;exitDy=0;entryX=0.5;entryY=0;entryDx=0;entryDy=0;" parent="WIyWlLk6GJQsqaUBKTNV-1" source="IxoI0bGfIbi6MGj2JMH9-44" target="IxoI0bGfIbi6MGj2JMH9-48" edge="1">
          <mxGeometry relative="1" as="geometry" />
        </mxCell>
        <mxCell id="IxoI0bGfIbi6MGj2JMH9-44" value="&lt;span style=&quot;font-size: 8px;&quot;&gt;MENU&lt;/span&gt;" style="shape=parallelogram;perimeter=parallelogramPerimeter;whiteSpace=wrap;html=1;fixedSize=1;" parent="WIyWlLk6GJQsqaUBKTNV-1" vertex="1">
          <mxGeometry x="426" y="340" width="130" height="75" as="geometry" />
        </mxCell>
        <mxCell id="IxoI0bGfIbi6MGj2JMH9-136" style="edgeStyle=orthogonalEdgeStyle;rounded=0;orthogonalLoop=1;jettySize=auto;html=1;exitX=0;exitY=0.5;exitDx=0;exitDy=0;entryX=1;entryY=0.5;entryDx=0;entryDy=0;fontStyle=1" parent="WIyWlLk6GJQsqaUBKTNV-1" source="IxoI0bGfIbi6MGj2JMH9-47" target="IxoI0bGfIbi6MGj2JMH9-139" edge="1">
          <mxGeometry relative="1" as="geometry">
            <mxPoint x="196" y="377.5" as="targetPoint" />
          </mxGeometry>
        </mxCell>
        <mxCell id="IxoI0bGfIbi6MGj2JMH9-137" value="&lt;b&gt;True&lt;/b&gt;" style="edgeLabel;html=1;align=center;verticalAlign=middle;resizable=0;points=[];" parent="IxoI0bGfIbi6MGj2JMH9-136" vertex="1" connectable="0">
          <mxGeometry x="-0.12" y="-2" relative="1" as="geometry">
            <mxPoint x="-3" y="2" as="offset" />
          </mxGeometry>
        </mxCell>
        <mxCell id="IxoI0bGfIbi6MGj2JMH9-143" style="edgeStyle=orthogonalEdgeStyle;rounded=0;orthogonalLoop=1;jettySize=auto;html=1;exitX=0.5;exitY=1;exitDx=0;exitDy=0;entryX=0.5;entryY=0;entryDx=0;entryDy=0;fontStyle=1" parent="WIyWlLk6GJQsqaUBKTNV-1" source="IxoI0bGfIbi6MGj2JMH9-47" target="IxoI0bGfIbi6MGj2JMH9-142" edge="1">
          <mxGeometry relative="1" as="geometry" />
        </mxCell>
        <mxCell id="IxoI0bGfIbi6MGj2JMH9-144" value="&lt;b&gt;False&lt;/b&gt;" style="edgeLabel;html=1;align=center;verticalAlign=middle;resizable=0;points=[];" parent="IxoI0bGfIbi6MGj2JMH9-143" vertex="1" connectable="0">
          <mxGeometry x="-0.4617" relative="1" as="geometry">
            <mxPoint y="8" as="offset" />
          </mxGeometry>
        </mxCell>
        <mxCell id="IxoI0bGfIbi6MGj2JMH9-47" value="&lt;font style=&quot;font-size: 8px;&quot;&gt;[2]&lt;font style=&quot;&quot;&gt;&amp;nbsp;Daftar Akun&lt;/font&gt;&lt;/font&gt;" style="rhombus;whiteSpace=wrap;html=1;" parent="WIyWlLk6GJQsqaUBKTNV-1" vertex="1">
          <mxGeometry x="246" y="337.5" width="80" height="80" as="geometry" />
        </mxCell>
        <mxCell id="IxoI0bGfIbi6MGj2JMH9-62" style="edgeStyle=orthogonalEdgeStyle;rounded=0;orthogonalLoop=1;jettySize=auto;html=1;exitX=0.5;exitY=1;exitDx=0;exitDy=0;entryX=0.5;entryY=0;entryDx=0;entryDy=0;" parent="WIyWlLk6GJQsqaUBKTNV-1" source="IxoI0bGfIbi6MGj2JMH9-48" target="IxoI0bGfIbi6MGj2JMH9-61" edge="1">
          <mxGeometry relative="1" as="geometry" />
        </mxCell>
        <mxCell id="IxoI0bGfIbi6MGj2JMH9-102" value="False" style="edgeLabel;html=1;align=center;verticalAlign=middle;resizable=0;points=[];fontStyle=1" parent="IxoI0bGfIbi6MGj2JMH9-62" vertex="1" connectable="0">
          <mxGeometry x="-0.0925" y="-2" relative="1" as="geometry">
            <mxPoint x="2" as="offset" />
          </mxGeometry>
        </mxCell>
        <mxCell id="IxoI0bGfIbi6MGj2JMH9-153" style="edgeStyle=orthogonalEdgeStyle;rounded=0;orthogonalLoop=1;jettySize=auto;html=1;exitX=1;exitY=0.5;exitDx=0;exitDy=0;entryX=0;entryY=0.5;entryDx=0;entryDy=0;" parent="WIyWlLk6GJQsqaUBKTNV-1" source="IxoI0bGfIbi6MGj2JMH9-48" target="IxoI0bGfIbi6MGj2JMH9-64" edge="1">
          <mxGeometry relative="1" as="geometry" />
        </mxCell>
        <mxCell id="IxoI0bGfIbi6MGj2JMH9-157" value="&lt;b&gt;True&lt;/b&gt;" style="edgeLabel;html=1;align=center;verticalAlign=middle;resizable=0;points=[];" parent="IxoI0bGfIbi6MGj2JMH9-153" vertex="1" connectable="0">
          <mxGeometry x="-0.1462" y="1" relative="1" as="geometry">
            <mxPoint as="offset" />
          </mxGeometry>
        </mxCell>
        <mxCell id="IxoI0bGfIbi6MGj2JMH9-48" value="&lt;span style=&quot;font-size: 8px;&quot;&gt;[1] Tambah tiket&lt;/span&gt;" style="rhombus;whiteSpace=wrap;html=1;" parent="WIyWlLk6GJQsqaUBKTNV-1" vertex="1">
          <mxGeometry x="451" y="455.63" width="80" height="80" as="geometry" />
        </mxCell>
        <mxCell id="IxoI0bGfIbi6MGj2JMH9-77" style="edgeStyle=orthogonalEdgeStyle;rounded=0;orthogonalLoop=1;jettySize=auto;html=1;exitX=0.5;exitY=1;exitDx=0;exitDy=0;entryX=0.5;entryY=0;entryDx=0;entryDy=0;" parent="WIyWlLk6GJQsqaUBKTNV-1" source="IxoI0bGfIbi6MGj2JMH9-61" target="IxoI0bGfIbi6MGj2JMH9-74" edge="1">
          <mxGeometry relative="1" as="geometry" />
        </mxCell>
        <mxCell id="IxoI0bGfIbi6MGj2JMH9-103" value="False" style="edgeLabel;html=1;align=center;verticalAlign=middle;resizable=0;points=[];fontStyle=1" parent="IxoI0bGfIbi6MGj2JMH9-77" vertex="1" connectable="0">
          <mxGeometry x="-0.1767" y="-3" relative="1" as="geometry">
            <mxPoint x="3" as="offset" />
          </mxGeometry>
        </mxCell>
        <mxCell id="IxoI0bGfIbi6MGj2JMH9-154" style="edgeStyle=orthogonalEdgeStyle;rounded=0;orthogonalLoop=1;jettySize=auto;html=1;exitX=1;exitY=0.5;exitDx=0;exitDy=0;entryX=0;entryY=0.5;entryDx=0;entryDy=0;" parent="WIyWlLk6GJQsqaUBKTNV-1" source="IxoI0bGfIbi6MGj2JMH9-61" target="IxoI0bGfIbi6MGj2JMH9-70" edge="1">
          <mxGeometry relative="1" as="geometry" />
        </mxCell>
        <mxCell id="IxoI0bGfIbi6MGj2JMH9-156" value="&lt;b&gt;True&lt;/b&gt;" style="edgeLabel;html=1;align=center;verticalAlign=middle;resizable=0;points=[];" parent="IxoI0bGfIbi6MGj2JMH9-154" vertex="1" connectable="0">
          <mxGeometry x="-0.2912" y="-1" relative="1" as="geometry">
            <mxPoint x="4" y="-1" as="offset" />
          </mxGeometry>
        </mxCell>
        <mxCell id="IxoI0bGfIbi6MGj2JMH9-61" value="&lt;span style=&quot;font-size: 8px;&quot;&gt;[2] Lihat semua tiket&lt;/span&gt;" style="rhombus;whiteSpace=wrap;html=1;" parent="WIyWlLk6GJQsqaUBKTNV-1" vertex="1">
          <mxGeometry x="451" y="577.5" width="80" height="80" as="geometry" />
        </mxCell>
        <mxCell id="IxoI0bGfIbi6MGj2JMH9-207" style="edgeStyle=orthogonalEdgeStyle;rounded=0;orthogonalLoop=1;jettySize=auto;html=1;exitX=1;exitY=0.5;exitDx=0;exitDy=0;" parent="WIyWlLk6GJQsqaUBKTNV-1" source="IxoI0bGfIbi6MGj2JMH9-64" target="IxoI0bGfIbi6MGj2JMH9-161" edge="1">
          <mxGeometry relative="1" as="geometry" />
        </mxCell>
        <mxCell id="IxoI0bGfIbi6MGj2JMH9-64" value="&lt;span style=&quot;font-size: 8px;&quot;&gt;Tambah Nama&lt;/span&gt;&lt;div&gt;&lt;span style=&quot;font-size: 8px;&quot;&gt;Tambah tujuan&lt;/span&gt;&lt;/div&gt;&lt;div&gt;&lt;span style=&quot;font-size: 8px;&quot;&gt;Tambah harga&lt;/span&gt;&lt;/div&gt;" style="rounded=0;whiteSpace=wrap;html=1;" parent="WIyWlLk6GJQsqaUBKTNV-1" vertex="1">
          <mxGeometry x="589.5" y="473.76" width="100" height="43.75" as="geometry" />
        </mxCell>
        <mxCell id="IxoI0bGfIbi6MGj2JMH9-70" value="&lt;span style=&quot;font-size: 8px;&quot;&gt;Lihat tiket&lt;/span&gt;" style="rounded=0;whiteSpace=wrap;html=1;" parent="WIyWlLk6GJQsqaUBKTNV-1" vertex="1">
          <mxGeometry x="589.5" y="595.62" width="100" height="43.75" as="geometry" />
        </mxCell>
        <mxCell id="IxoI0bGfIbi6MGj2JMH9-83" style="edgeStyle=orthogonalEdgeStyle;rounded=0;orthogonalLoop=1;jettySize=auto;html=1;exitX=1;exitY=0.5;exitDx=0;exitDy=0;" parent="WIyWlLk6GJQsqaUBKTNV-1" source="IxoI0bGfIbi6MGj2JMH9-74" target="IxoI0bGfIbi6MGj2JMH9-78" edge="1">
          <mxGeometry relative="1" as="geometry" />
        </mxCell>
        <mxCell id="IxoI0bGfIbi6MGj2JMH9-155" value="&lt;b&gt;True&lt;/b&gt;" style="edgeLabel;html=1;align=center;verticalAlign=middle;resizable=0;points=[];" parent="IxoI0bGfIbi6MGj2JMH9-83" vertex="1" connectable="0">
          <mxGeometry x="-0.1669" y="2" relative="1" as="geometry">
            <mxPoint x="1" y="2" as="offset" />
          </mxGeometry>
        </mxCell>
        <mxCell id="IxoI0bGfIbi6MGj2JMH9-85" style="edgeStyle=orthogonalEdgeStyle;rounded=0;orthogonalLoop=1;jettySize=auto;html=1;exitX=0.5;exitY=1;exitDx=0;exitDy=0;entryX=0.5;entryY=0;entryDx=0;entryDy=0;" parent="WIyWlLk6GJQsqaUBKTNV-1" source="IxoI0bGfIbi6MGj2JMH9-74" target="IxoI0bGfIbi6MGj2JMH9-84" edge="1">
          <mxGeometry relative="1" as="geometry" />
        </mxCell>
        <mxCell id="IxoI0bGfIbi6MGj2JMH9-104" value="&lt;b&gt;False&lt;/b&gt;" style="edgeLabel;html=1;align=center;verticalAlign=middle;resizable=0;points=[];" parent="IxoI0bGfIbi6MGj2JMH9-85" vertex="1" connectable="0">
          <mxGeometry x="-0.2767" y="2" relative="1" as="geometry">
            <mxPoint x="-2" as="offset" />
          </mxGeometry>
        </mxCell>
        <mxCell id="IxoI0bGfIbi6MGj2JMH9-74" value="&lt;span style=&quot;font-size: 8px;&quot;&gt;[3] Ubah tiket&lt;/span&gt;" style="rhombus;whiteSpace=wrap;html=1;" parent="WIyWlLk6GJQsqaUBKTNV-1" vertex="1">
          <mxGeometry x="451" y="697.5" width="80" height="80" as="geometry" />
        </mxCell>
        <mxCell id="GXRtlIEf8j7_5KHKnMaV-25" style="edgeStyle=orthogonalEdgeStyle;rounded=0;orthogonalLoop=1;jettySize=auto;html=1;entryX=0.658;entryY=1.175;entryDx=0;entryDy=0;entryPerimeter=0;" parent="WIyWlLk6GJQsqaUBKTNV-1" source="GXRtlIEf8j7_5KHKnMaV-26" target="IxoI0bGfIbi6MGj2JMH9-165" edge="1">
          <mxGeometry relative="1" as="geometry">
            <mxPoint x="740" y="737.5050000000001" as="targetPoint" />
          </mxGeometry>
        </mxCell>
        <mxCell id="IxoI0bGfIbi6MGj2JMH9-78" value="&lt;span style=&quot;font-size: 8px;&quot;&gt;Ubah nama&lt;/span&gt;&lt;div&gt;&lt;span style=&quot;font-size: 8px;&quot;&gt;Ubah tiket&lt;/span&gt;&lt;/div&gt;&lt;div&gt;&lt;span style=&quot;font-size: 8px;&quot;&gt;ubah harga&lt;/span&gt;&lt;/div&gt;" style="rounded=0;whiteSpace=wrap;html=1;" parent="WIyWlLk6GJQsqaUBKTNV-1" vertex="1">
          <mxGeometry x="589.5" y="715.63" width="100" height="43.75" as="geometry" />
        </mxCell>
        <mxCell id="IxoI0bGfIbi6MGj2JMH9-88" style="edgeStyle=orthogonalEdgeStyle;rounded=0;orthogonalLoop=1;jettySize=auto;html=1;exitX=0.5;exitY=1;exitDx=0;exitDy=0;entryX=0.5;entryY=0;entryDx=0;entryDy=0;" parent="WIyWlLk6GJQsqaUBKTNV-1" source="IxoI0bGfIbi6MGj2JMH9-84" target="IxoI0bGfIbi6MGj2JMH9-87" edge="1">
          <mxGeometry relative="1" as="geometry" />
        </mxCell>
        <mxCell id="IxoI0bGfIbi6MGj2JMH9-105" value="&lt;b&gt;False&lt;/b&gt;" style="edgeLabel;html=1;align=center;verticalAlign=middle;resizable=0;points=[];" parent="IxoI0bGfIbi6MGj2JMH9-88" vertex="1" connectable="0">
          <mxGeometry x="-0.2367" y="-1" relative="1" as="geometry">
            <mxPoint as="offset" />
          </mxGeometry>
        </mxCell>
        <mxCell id="GXRtlIEf8j7_5KHKnMaV-18" style="edgeStyle=orthogonalEdgeStyle;rounded=0;orthogonalLoop=1;jettySize=auto;html=1;" parent="WIyWlLk6GJQsqaUBKTNV-1" source="IxoI0bGfIbi6MGj2JMH9-84" edge="1">
          <mxGeometry relative="1" as="geometry">
            <mxPoint x="590" y="857.5" as="targetPoint" />
          </mxGeometry>
        </mxCell>
        <mxCell id="GXRtlIEf8j7_5KHKnMaV-19" value="&lt;b&gt;True&lt;/b&gt;" style="edgeLabel;html=1;align=center;verticalAlign=middle;resizable=0;points=[];" parent="GXRtlIEf8j7_5KHKnMaV-18" vertex="1" connectable="0">
          <mxGeometry x="0.0456" y="-3" relative="1" as="geometry">
            <mxPoint as="offset" />
          </mxGeometry>
        </mxCell>
        <mxCell id="IxoI0bGfIbi6MGj2JMH9-84" value="&lt;span style=&quot;font-size: 8px;&quot;&gt;[4] Hapus tiket&lt;/span&gt;" style="rhombus;whiteSpace=wrap;html=1;" parent="WIyWlLk6GJQsqaUBKTNV-1" vertex="1">
          <mxGeometry x="451" y="817.5" width="80" height="80" as="geometry" />
        </mxCell>
        <mxCell id="GXRtlIEf8j7_5KHKnMaV-31" style="edgeStyle=orthogonalEdgeStyle;rounded=0;orthogonalLoop=1;jettySize=auto;html=1;entryX=1;entryY=0.5;entryDx=0;entryDy=0;" parent="WIyWlLk6GJQsqaUBKTNV-1" source="IxoI0bGfIbi6MGj2JMH9-87" target="IxoI0bGfIbi6MGj2JMH9-38" edge="1">
          <mxGeometry relative="1" as="geometry">
            <mxPoint x="1000" y="220" as="targetPoint" />
            <Array as="points">
              <mxPoint x="940" y="978" />
              <mxPoint x="940" y="125" />
            </Array>
          </mxGeometry>
        </mxCell>
        <mxCell id="GXRtlIEf8j7_5KHKnMaV-34" value="&lt;b&gt;True&lt;/b&gt;" style="edgeLabel;html=1;align=center;verticalAlign=middle;resizable=0;points=[];" parent="GXRtlIEf8j7_5KHKnMaV-31" vertex="1" connectable="0">
          <mxGeometry x="-0.9663" y="-4" relative="1" as="geometry">
            <mxPoint as="offset" />
          </mxGeometry>
        </mxCell>
        <mxCell id="0uhHmbEVeu0VzTPpXiIq-0" style="edgeStyle=orthogonalEdgeStyle;rounded=0;orthogonalLoop=1;jettySize=auto;html=1;" edge="1" parent="WIyWlLk6GJQsqaUBKTNV-1" source="IxoI0bGfIbi6MGj2JMH9-87" target="IxoI0bGfIbi6MGj2JMH9-44">
          <mxGeometry relative="1" as="geometry">
            <mxPoint x="370" y="600" as="targetPoint" />
            <Array as="points">
              <mxPoint x="370" y="978" />
              <mxPoint x="370" y="378" />
            </Array>
          </mxGeometry>
        </mxCell>
        <mxCell id="0uhHmbEVeu0VzTPpXiIq-1" value="&lt;b&gt;False&lt;/b&gt;" style="edgeLabel;html=1;align=center;verticalAlign=middle;resizable=0;points=[];" vertex="1" connectable="0" parent="0uhHmbEVeu0VzTPpXiIq-0">
          <mxGeometry x="-0.9348" y="1" relative="1" as="geometry">
            <mxPoint as="offset" />
          </mxGeometry>
        </mxCell>
        <mxCell id="IxoI0bGfIbi6MGj2JMH9-87" value="&lt;span style=&quot;font-size: 8px;&quot;&gt;[5] EXIT&lt;/span&gt;" style="rhombus;whiteSpace=wrap;html=1;" parent="WIyWlLk6GJQsqaUBKTNV-1" vertex="1">
          <mxGeometry x="451" y="937.5" width="80" height="80" as="geometry" />
        </mxCell>
        <mxCell id="IxoI0bGfIbi6MGj2JMH9-169" style="edgeStyle=orthogonalEdgeStyle;rounded=0;orthogonalLoop=1;jettySize=auto;html=1;exitDx=0;exitDy=0;entryX=0;entryY=0.5;entryDx=0;entryDy=0;" parent="WIyWlLk6GJQsqaUBKTNV-1" source="IxoI0bGfIbi6MGj2JMH9-209" target="IxoI0bGfIbi6MGj2JMH9-38" edge="1">
          <mxGeometry relative="1" as="geometry">
            <Array as="points">
              <mxPoint x="36" y="125" />
            </Array>
          </mxGeometry>
        </mxCell>
        <mxCell id="IxoI0bGfIbi6MGj2JMH9-139" value="&lt;span style=&quot;font-size: 8px;&quot;&gt;Tambahkan username Baru&lt;/span&gt;&lt;div&gt;&lt;span style=&quot;font-size: 8px;&quot;&gt;Tambahkan Password Baru&lt;/span&gt;&lt;/div&gt;" style="rounded=0;whiteSpace=wrap;html=1;" parent="WIyWlLk6GJQsqaUBKTNV-1" vertex="1">
          <mxGeometry x="76" y="355.62" width="110" height="43.75" as="geometry" />
        </mxCell>
        <mxCell id="IxoI0bGfIbi6MGj2JMH9-145" style="edgeStyle=orthogonalEdgeStyle;rounded=0;orthogonalLoop=1;jettySize=auto;html=1;exitDx=0;exitDy=0;entryX=0.5;entryY=0;entryDx=0;entryDy=0;" parent="WIyWlLk6GJQsqaUBKTNV-1" source="IxoI0bGfIbi6MGj2JMH9-223" target="WIyWlLk6GJQsqaUBKTNV-11" edge="1">
          <mxGeometry relative="1" as="geometry" />
        </mxCell>
        <mxCell id="IxoI0bGfIbi6MGj2JMH9-151" style="edgeStyle=orthogonalEdgeStyle;rounded=0;orthogonalLoop=1;jettySize=auto;html=1;exitX=0;exitY=0.5;exitDx=0;exitDy=0;" parent="WIyWlLk6GJQsqaUBKTNV-1" source="IxoI0bGfIbi6MGj2JMH9-142" edge="1">
          <mxGeometry relative="1" as="geometry">
            <mxPoint x="36" y="380" as="targetPoint" />
          </mxGeometry>
        </mxCell>
        <mxCell id="IxoI0bGfIbi6MGj2JMH9-170" value="&lt;b&gt;False&lt;/b&gt;" style="edgeLabel;html=1;align=center;verticalAlign=middle;resizable=0;points=[];" parent="IxoI0bGfIbi6MGj2JMH9-151" vertex="1" connectable="0">
          <mxGeometry x="-0.7829" y="2" relative="1" as="geometry">
            <mxPoint x="7" y="-2" as="offset" />
          </mxGeometry>
        </mxCell>
        <mxCell id="IxoI0bGfIbi6MGj2JMH9-142" value="&lt;font style=&quot;font-size: 8px;&quot;&gt;[3] Exit&lt;/font&gt;" style="rhombus;whiteSpace=wrap;html=1;" parent="WIyWlLk6GJQsqaUBKTNV-1" vertex="1">
          <mxGeometry x="246" y="471.88" width="80" height="80" as="geometry" />
        </mxCell>
        <mxCell id="IxoI0bGfIbi6MGj2JMH9-161" value="" style="shape=waypoint;sketch=0;size=6;pointerEvents=1;points=[];fillColor=none;resizable=0;rotatable=0;perimeter=centerPerimeter;snapToPoint=1;" parent="WIyWlLk6GJQsqaUBKTNV-1" vertex="1">
          <mxGeometry x="729.5" y="485.63" width="20" height="20" as="geometry" />
        </mxCell>
        <mxCell id="IxoI0bGfIbi6MGj2JMH9-165" value="" style="shape=waypoint;sketch=0;size=6;pointerEvents=1;points=[];fillColor=none;resizable=0;rotatable=0;perimeter=centerPerimeter;snapToPoint=1;" parent="WIyWlLk6GJQsqaUBKTNV-1" vertex="1">
          <mxGeometry x="729.5" y="607.5" width="20" height="20" as="geometry" />
        </mxCell>
        <mxCell id="IxoI0bGfIbi6MGj2JMH9-205" style="edgeStyle=orthogonalEdgeStyle;rounded=0;orthogonalLoop=1;jettySize=auto;html=1;exitX=1;exitY=0.5;exitDx=0;exitDy=0;entryX=0.272;entryY=0.558;entryDx=0;entryDy=0;entryPerimeter=0;" parent="WIyWlLk6GJQsqaUBKTNV-1" source="IxoI0bGfIbi6MGj2JMH9-70" target="IxoI0bGfIbi6MGj2JMH9-165" edge="1">
          <mxGeometry relative="1" as="geometry" />
        </mxCell>
        <mxCell id="IxoI0bGfIbi6MGj2JMH9-206" value="" style="endArrow=classic;html=1;rounded=0;exitX=0.458;exitY=0.118;exitDx=0;exitDy=0;exitPerimeter=0;" parent="WIyWlLk6GJQsqaUBKTNV-1" source="IxoI0bGfIbi6MGj2JMH9-165" target="IxoI0bGfIbi6MGj2JMH9-161" edge="1">
          <mxGeometry width="50" height="50" relative="1" as="geometry">
            <mxPoint x="706" y="580" as="sourcePoint" />
            <mxPoint x="756" y="530" as="targetPoint" />
          </mxGeometry>
        </mxCell>
        <mxCell id="IxoI0bGfIbi6MGj2JMH9-208" value="" style="endArrow=classic;html=1;rounded=0;exitX=0.597;exitY=0.193;exitDx=0;exitDy=0;exitPerimeter=0;entryX=1;entryY=0.5;entryDx=0;entryDy=0;" parent="WIyWlLk6GJQsqaUBKTNV-1" source="IxoI0bGfIbi6MGj2JMH9-161" target="IxoI0bGfIbi6MGj2JMH9-44" edge="1">
          <mxGeometry width="50" height="50" relative="1" as="geometry">
            <mxPoint x="739.16" y="473.76" as="sourcePoint" />
            <mxPoint x="739.16" y="351.76" as="targetPoint" />
            <Array as="points">
              <mxPoint x="740" y="380" />
            </Array>
          </mxGeometry>
        </mxCell>
        <mxCell id="IxoI0bGfIbi6MGj2JMH9-210" value="" style="edgeStyle=orthogonalEdgeStyle;rounded=0;orthogonalLoop=1;jettySize=auto;html=1;exitX=0;exitY=0.5;exitDx=0;exitDy=0;entryDx=0;entryDy=0;" parent="WIyWlLk6GJQsqaUBKTNV-1" source="IxoI0bGfIbi6MGj2JMH9-139" target="IxoI0bGfIbi6MGj2JMH9-209" edge="1">
          <mxGeometry relative="1" as="geometry">
            <mxPoint x="76" y="377" as="sourcePoint" />
            <mxPoint x="226" y="125" as="targetPoint" />
            <Array as="points">
              <mxPoint x="36" y="377" />
            </Array>
          </mxGeometry>
        </mxCell>
        <mxCell id="IxoI0bGfIbi6MGj2JMH9-209" value="" style="shape=waypoint;sketch=0;size=6;pointerEvents=1;points=[];fillColor=none;resizable=0;rotatable=0;perimeter=centerPerimeter;snapToPoint=1;" parent="WIyWlLk6GJQsqaUBKTNV-1" vertex="1">
          <mxGeometry x="26" y="367.49" width="20" height="20" as="geometry" />
        </mxCell>
        <mxCell id="IxoI0bGfIbi6MGj2JMH9-224" value="" style="edgeStyle=orthogonalEdgeStyle;rounded=0;orthogonalLoop=1;jettySize=auto;html=1;exitX=0.5;exitY=1;exitDx=0;exitDy=0;entryDx=0;entryDy=0;" parent="WIyWlLk6GJQsqaUBKTNV-1" source="IxoI0bGfIbi6MGj2JMH9-142" target="IxoI0bGfIbi6MGj2JMH9-223" edge="1">
          <mxGeometry relative="1" as="geometry">
            <mxPoint x="286" y="552" as="sourcePoint" />
            <mxPoint x="286" y="1230" as="targetPoint" />
          </mxGeometry>
        </mxCell>
        <mxCell id="IxoI0bGfIbi6MGj2JMH9-225" value="&lt;b&gt;True&lt;/b&gt;" style="edgeLabel;html=1;align=center;verticalAlign=middle;resizable=0;points=[];" parent="IxoI0bGfIbi6MGj2JMH9-224" vertex="1" connectable="0">
          <mxGeometry x="-0.8443" y="1" relative="1" as="geometry">
            <mxPoint x="-1" y="-27" as="offset" />
          </mxGeometry>
        </mxCell>
        <mxCell id="IxoI0bGfIbi6MGj2JMH9-223" value="" style="shape=waypoint;sketch=0;size=6;pointerEvents=1;points=[];fillColor=none;resizable=0;rotatable=0;perimeter=centerPerimeter;snapToPoint=1;" parent="WIyWlLk6GJQsqaUBKTNV-1" vertex="1">
          <mxGeometry x="276" y="1160" width="20" height="20" as="geometry" />
        </mxCell>
        <mxCell id="IxoI0bGfIbi6MGj2JMH9-226" value="" style="shape=waypoint;sketch=0;size=6;pointerEvents=1;points=[];fillColor=none;resizable=0;rotatable=0;perimeter=centerPerimeter;snapToPoint=1;" parent="WIyWlLk6GJQsqaUBKTNV-1" vertex="1">
          <mxGeometry x="481" y="1160" width="20" height="20" as="geometry" />
        </mxCell>
        <mxCell id="IxoI0bGfIbi6MGj2JMH9-231" value="" style="shape=waypoint;sketch=0;size=6;pointerEvents=1;points=[];fillColor=#f8cecc;resizable=0;rotatable=0;perimeter=centerPerimeter;snapToPoint=1;strokeColor=#b85450;" parent="WIyWlLk6GJQsqaUBKTNV-1" vertex="1">
          <mxGeometry x="796" y="450" width="20" height="20" as="geometry" />
        </mxCell>
        <mxCell id="GXRtlIEf8j7_5KHKnMaV-3" style="edgeStyle=orthogonalEdgeStyle;rounded=0;orthogonalLoop=1;jettySize=auto;html=1;exitX=0.5;exitY=1;exitDx=0;exitDy=0;entryX=0.5;entryY=0;entryDx=0;entryDy=0;" parent="WIyWlLk6GJQsqaUBKTNV-1" source="GXRtlIEf8j7_5KHKnMaV-0" target="IxoI0bGfIbi6MGj2JMH9-44" edge="1">
          <mxGeometry relative="1" as="geometry" />
        </mxCell>
        <mxCell id="GXRtlIEf8j7_5KHKnMaV-0" value="&lt;span style=&quot;font-size: 8px;&quot;&gt;masukkan username&lt;/span&gt;&lt;br&gt;&lt;div&gt;&lt;span style=&quot;font-size: 8px;&quot;&gt;masukkan password&lt;/span&gt;&lt;/div&gt;&lt;div&gt;&lt;span style=&quot;font-size: 8px;&quot;&gt;&lt;br&gt;&lt;/span&gt;&lt;/div&gt;" style="rounded=0;whiteSpace=wrap;html=1;" parent="WIyWlLk6GJQsqaUBKTNV-1" vertex="1">
          <mxGeometry x="441" y="198.13" width="100" height="43.75" as="geometry" />
        </mxCell>
        <mxCell id="GXRtlIEf8j7_5KHKnMaV-21" style="edgeStyle=orthogonalEdgeStyle;rounded=0;orthogonalLoop=1;jettySize=auto;html=1;" parent="WIyWlLk6GJQsqaUBKTNV-1" source="GXRtlIEf8j7_5KHKnMaV-20" edge="1">
          <mxGeometry relative="1" as="geometry">
            <mxPoint x="740" y="750" as="targetPoint" />
            <Array as="points">
              <mxPoint x="741" y="858" />
            </Array>
          </mxGeometry>
        </mxCell>
        <mxCell id="GXRtlIEf8j7_5KHKnMaV-20" value="&lt;span style=&quot;font-size: 8px;&quot;&gt;Hapus tiket&lt;/span&gt;" style="rounded=0;whiteSpace=wrap;html=1;" parent="WIyWlLk6GJQsqaUBKTNV-1" vertex="1">
          <mxGeometry x="589.5" y="835.62" width="100" height="43.75" as="geometry" />
        </mxCell>
        <mxCell id="GXRtlIEf8j7_5KHKnMaV-27" value="" style="edgeStyle=orthogonalEdgeStyle;rounded=0;orthogonalLoop=1;jettySize=auto;html=1;entryDx=0;entryDy=0;entryPerimeter=0;" parent="WIyWlLk6GJQsqaUBKTNV-1" source="IxoI0bGfIbi6MGj2JMH9-78" target="GXRtlIEf8j7_5KHKnMaV-26" edge="1">
          <mxGeometry relative="1" as="geometry">
            <mxPoint x="740" y="618" as="targetPoint" />
            <mxPoint x="690" y="738" as="sourcePoint" />
          </mxGeometry>
        </mxCell>
        <mxCell id="GXRtlIEf8j7_5KHKnMaV-26" value="" style="shape=waypoint;sketch=0;size=6;pointerEvents=1;points=[];fillColor=none;resizable=0;rotatable=0;perimeter=centerPerimeter;snapToPoint=1;" parent="WIyWlLk6GJQsqaUBKTNV-1" vertex="1">
          <mxGeometry x="729.5" y="727.5" width="20" height="20" as="geometry" />
        </mxCell>
      </root>
    </mxGraphModel>
  </diagram>
</mxfile>
